<?xml version="1.0" encoding="utf-8"?>
<!-- Generator: Adobe Illustrator 16.0.0, SVG Export Plug-In . SVG Version: 6.00 Build 0)  -->
<!DOCTYPE svg PUBLIC "-//W3C//DTD SVG 1.1//EN" "http://www.w3.org/Graphics/SVG/1.1/DTD/svg11.dtd">
<svg version="1.1" id="Layer_1" xmlns="http://www.w3.org/2000/svg" xmlns:xlink="http://www.w3.org/1999/xlink" x="0px" y="0px"
	 width="1190.94px" height="787.572px" viewBox="0 0 1190.94 787.572" enable-background="new 0 0 1190.94 787.572"
	 xml:space="preserve">
<g>
	<g>
		<path fill="#666666" d="M585.294,358.946c27.131-10.975,55.688-17.768,84.506-22.539c29.483-4.881,59.535-8.015,89.398-9.21
			c62.517-2.503,124.603,6.991,184.76,23.584c16.373,4.516,33.609,8.127,49.181,15.015c1.752,0.775,3.28-1.81,1.514-2.591
			c-13.09-5.79-27.122-8.775-40.815-12.747c-14.975-4.343-30.077-8.237-45.283-11.681c-29.464-6.673-59.391-11.286-89.52-13.535
			c-30.728-2.292-61.435-1.562-92.103,1.165c-28.802,2.561-57.552,6.25-85.817,12.436c-19.291,4.221-38.304,9.803-56.617,17.211
			C582.728,356.77,583.5,359.672,585.294,358.946L585.294,358.946z"/>
	</g>
</g>
<g>
	<g>
		<path fill="#666666" d="M226.09,375.038c50.928,16.15,105.458,9.811,157.693,5.939c12.878-0.955,25.989-0.308,38.886-0.154
			c16.772,0.2,33.543,0.524,50.316,0.665c4.815,0.041,9.633,0.078,14.447-0.019c1.263-0.025,5.137,0.443,5.838-1.121
			c0.785-1.75-1.799-3.277-2.59-1.515c0.37-0.825,1.099-0.595,0.229-0.513c-0.604,0.057-1.212,0.078-1.818,0.102
			c-2.188,0.086-4.379,0.091-6.568,0.099c-6.769,0.026-13.538-0.064-20.306-0.149c-17.193-0.216-34.385-0.536-51.578-0.67
			c-41.672-0.327-82.919,6.242-124.679,4.194c-19.967-0.979-39.975-3.694-59.072-9.75
			C225.038,371.559,224.253,374.456,226.09,375.038L226.09,375.038z"/>
	</g>
</g>
<g>
	<g>
		<path fill="#666666" d="M834.458,142.104c0.863-18.964-18.839-30.477-35.675-31.402c-18.111-0.995-31.631,13.749-38.521,28.938
			c-7.925,17.47-9.96,37.095-13.047,55.826c-3.29,19.965-9.933,38.129-20.998,55.172c-20.184,31.087-51.042,54.548-83.745,71.197
			c-32.719,16.656-69.646,27.131-106.499,27.259c-1.935,0.007-1.935,3.007,0,3c44.408-0.155,88.636-14.988,126.376-37.89
			c36.795-22.33,69.87-55.194,83.187-96.989c8.468-26.579,6.423-55.834,19.746-81.02c6.68-12.625,18.62-22.849,33.501-22.493
			c15.272,0.366,33.444,11.494,32.675,28.402C831.37,144.039,834.37,144.03,834.458,142.104L834.458,142.104z"/>
	</g>
</g>
<g>
	<g>
		<path fill="#666666" d="M950.034,549.18c-24.238-8.729-49.539-17.484-69.813-33.908c-10.271-8.319-19.449-19.431-22.77-32.422
			c-3.225-12.621,0.449-25.898-1.326-38.688c-1.639-11.798-8.523-21.895-15.552-31.155c-7.074-9.321-14.052-18.795-22.344-27.085
			c-14.251-14.247-31.902-24.591-50.778-31.419c-36.04-13.037-75.965-12.567-113.339-6.496
			c-39.124,6.355-77.308,19.658-112.443,37.909c-1.718,0.892-0.2,3.481,1.514,2.591c40.401-20.987,84.886-35.339,130.239-40.084
			c42.691-4.467,88.359,0.405,124.732,24.848c17.118,11.503,29.467,27.404,41.699,43.731c6.333,8.453,11.576,17.42,13.379,27.958
			c1.926,11.263-1.158,22.804,0.498,34.119c3.032,20.722,19.633,36.296,36.509,47.016c18.163,11.536,38.867,18.729,58.997,25.979
			C951.062,552.729,951.841,549.83,950.034,549.18L950.034,549.18z"/>
	</g>
</g>
<g>
	<g>
		<path fill="#666666" d="M511.076,684.693c-21.901,3.795-41.042-19.336-52.007-35.149c-12.354-17.818-20.977-39.574-16.501-61.503
			c4.231-20.734,20.767-35.878,37.75-46.961c18.688-12.194,39.782-21.15,60.599-29.003c35.907-13.544,74.455-22.546,106.962-43.729
			c13.528-8.815,25.688-20.435,31.483-35.802c5.799-15.372,3.673-34.395-5.085-48.238c-11.469-18.128-34.459-22.153-54.257-19.33
			c-23.373,3.333-46.193,14.448-63.108,30.938c-1.388,1.352,0.735,3.472,2.121,2.121c12.961-12.636,29.271-21.648,46.553-26.851
			c15.745-4.74,33.929-6.395,49.337,0.407c16.553,7.308,24.245,24.681,24.606,42.03c0.371,17.795-9.218,32.803-22.307,44.064
			c-14.802,12.732-33.315,21.023-51.296,28.168c-18.343,7.288-37.195,13.182-55.812,19.708
			c-19.672,6.897-39.119,14.989-57.514,24.817c-17.58,9.392-34.946,21.381-45.598,38.625c-14.525,23.516-8.71,51.977,4.651,74.538
			c7.208,12.171,16.334,23.579,27.255,32.609c9.202,7.609,20.737,13.55,32.963,11.432
			C513.777,687.256,512.968,684.365,511.076,684.693L511.076,684.693z"/>
	</g>
</g>
<g>
	<path fill="#B3B3B3" stroke="#808080" stroke-width="8" stroke-miterlimit="10" d="M259.229,371.473
		C258.375,346.769,238.093,327,213.181,327c-1.797,0-3.566,0.114-5.312,0.314c-10.012-23.716-33.483-40.361-60.844-40.361
		c-35.941,0-65.172,28.723-65.996,64.465c-18.509,0.163-33.683,15.213-33.683,33.761c0,18.648,15.549,33.768,33.549,33.769
		c0,0,169.006-0.134,169.504-0.134c13.525,0,24.502-10.965,24.502-24.49C274.901,383.905,268.402,375.01,259.229,371.473z"/>
	<g>
		<path fill="#FFFFFF" d="M132.013,353.352v35.79h-4.62v-35.79H132.013z"/>
		<path fill="#FFFFFF" d="M139.448,383.513c2.071,1.274,5.098,2.336,8.284,2.336c4.726,0,7.487-2.496,7.487-6.106
			c0-3.345-1.912-5.257-6.744-7.115c-5.841-2.071-9.452-5.098-9.452-10.143c0-5.575,4.62-9.717,11.576-9.717
			c3.664,0,6.319,0.85,7.912,1.752l-1.274,3.77c-1.168-0.637-3.558-1.699-6.797-1.699c-4.885,0-6.744,2.92-6.744,5.363
			c0,3.345,2.177,4.992,7.116,6.903c6.053,2.337,9.133,5.257,9.133,10.514c0,5.522-4.088,10.301-12.531,10.301
			c-3.452,0-7.222-1.009-9.134-2.283L139.448,383.513z"/>
		<path fill="#FFFFFF" d="M166.266,353.776c2.23-0.372,5.15-0.69,8.868-0.69c4.566,0,7.912,1.062,10.035,2.974
			c1.965,1.699,3.134,4.301,3.134,7.487c0,3.239-0.956,5.788-2.762,7.646c-2.442,2.602-6.425,3.929-10.938,3.929
			c-1.381,0-2.655-0.053-3.717-0.319v14.337h-4.62V353.776z M170.886,371.034c1.009,0.266,2.283,0.372,3.823,0.372
			c5.575,0,8.974-2.708,8.974-7.646c0-4.726-3.346-7.009-8.443-7.009c-2.018,0-3.558,0.159-4.354,0.372V371.034z"/>
	</g>
</g>
<path fill="#E6E6E6" d="M-320.104,0c0,0.276,0.224,0.5,0.5,0.5l0,0c0.276,0,0.5-0.224,0.5-0.5l0,0c0-0.276-0.224-0.5-0.5-0.5l0,0
	C-319.881-0.5-320.104-0.276-320.104,0L-320.104,0z"/>
<g>
	<rect x="595.396" y="696" fill="#CCCCCC" stroke="#666666" stroke-width="3" stroke-miterlimit="10" width="39" height="20"/>
	<path fill="#CCCCCC" stroke="#666666" stroke-width="3" stroke-miterlimit="10" d="M573.396,712.221
		c0,4.297-3.482,7.779-7.779,7.779h-52.441c-4.297,0-7.779-3.482-7.779-7.779v-97.441c0-4.297,3.482-7.779,7.779-7.779h52.441
		c4.297,0,7.779,3.482,7.779,7.779V712.221z"/>
	<path fill="#E6E6E6" d="M566.896,709.723c0,4.295-3.482,7.777-7.778,7.777h-40.443c-4.296,0-7.778-3.482-7.778-7.777v-85.445
		c0-4.295,3.482-7.777,7.778-7.777h40.443c4.296,0,7.778,3.482,7.778,7.777V709.723z"/>
	<rect x="516.896" y="624.5" fill="#B3B3B3" width="44" height="9"/>
	<rect x="516.896" y="638.5" fill="#B3B3B3" width="44" height="9"/>
	<rect x="516.896" y="652.5" fill="#B3B3B3" width="44" height="9"/>
	<circle fill="#CCCCCC" stroke="#29ABE2" stroke-width="4" stroke-miterlimit="10" cx="538.455" cy="703.753" r="6.806"/>
	<rect x="558.396" y="616" fill="#CCCCCC" stroke="#666666" stroke-width="3" stroke-miterlimit="10" width="111" height="87"/>
	
		<radialGradient id="SVGID_1_" cx="684.9004" cy="677.126" r="70.459" fx="731.9853" fy="644.0963" gradientTransform="matrix(0.8919 0 0 0.8919 14.1829 47.0822)" gradientUnits="userSpaceOnUse">
		<stop  offset="0" style="stop-color:#FFFFFF"/>
		<stop  offset="0.532" style="stop-color:#54C8FF"/>
		<stop  offset="1" style="stop-color:#0064E9"/>
	</radialGradient>
	<path fill="url(#SVGID_1_)" stroke="#0071BC" stroke-width="4" stroke-miterlimit="10" d="M658.896,687.563
		c0,3.832-3.106,6.938-6.938,6.938h-78.125c-3.831,0-6.938-3.105-6.938-6.938v-58.125c0-3.832,3.106-6.938,6.938-6.938h78.125
		c3.831,0,6.938,3.105,6.938,6.938V687.563z"/>
	<g>
		<polygon fill="#CCCCCC" stroke="#666666" stroke-width="3" stroke-miterlimit="10" points="684.605,735.539 543.581,736.534 
			543.858,730.495 558.255,710.392 669.584,709.648 684.221,729.522 		"/>
		<g>
			<polygon fill="#999999" stroke="#CCCCCC" stroke-width="3" stroke-miterlimit="10" points="550.503,729.522 675.202,728.691 
				663.646,711.424 562.274,712.1 			"/>
			
				<line fill="none" stroke="#CCCCCC" stroke-width="3" stroke-miterlimit="10" x1="560.737" y1="714.422" x2="665.38" y2="713.725"/>
			
				<line fill="none" stroke="#CCCCCC" stroke-width="3" stroke-miterlimit="10" x1="558.448" y1="717.907" x2="667.716" y2="717.179"/>
			
				<line fill="none" stroke="#CCCCCC" stroke-width="3" stroke-miterlimit="10" x1="556.159" y1="721.392" x2="670.63" y2="720.629"/>
			
				<line fill="none" stroke="#CCCCCC" stroke-width="3" stroke-miterlimit="10" x1="553.874" y1="725.453" x2="672.392" y2="724.664"/>
			
				<line fill="none" stroke="#CCCCCC" stroke-width="3" stroke-miterlimit="10" x1="664.573" y1="728.424" x2="655.02" y2="710.735"/>
			
				<line fill="none" stroke="#CCCCCC" stroke-width="3" stroke-miterlimit="10" x1="653.132" y1="728.5" x2="645.715" y2="710.797"/>
			
				<line fill="none" stroke="#CCCCCC" stroke-width="3" stroke-miterlimit="10" x1="641.692" y1="728.577" x2="636.411" y2="710.859"/>
			
				<line fill="none" stroke="#CCCCCC" stroke-width="3" stroke-miterlimit="10" x1="630.251" y1="728.652" x2="627.106" y2="710.921"/>
			
				<line fill="none" stroke="#CCCCCC" stroke-width="3" stroke-miterlimit="10" x1="618.812" y1="728.729" x2="617.803" y2="710.983"/>
			
				<line fill="none" stroke="#CCCCCC" stroke-width="3" stroke-miterlimit="10" x1="607.371" y1="728.805" x2="608.498" y2="711.045"/>
			
				<line fill="none" stroke="#CCCCCC" stroke-width="3" stroke-miterlimit="10" x1="595.932" y1="728.881" x2="599.194" y2="711.108"/>
			
				<line fill="none" stroke="#CCCCCC" stroke-width="3" stroke-miterlimit="10" x1="584.967" y1="728.954" x2="590.278" y2="711.167"/>
			
				<line fill="none" stroke="#CCCCCC" stroke-width="3" stroke-miterlimit="10" x1="573.526" y1="729.031" x2="580.974" y2="711.229"/>
			
				<line fill="none" stroke="#CCCCCC" stroke-width="3" stroke-miterlimit="10" x1="562.087" y1="729.106" x2="571.67" y2="711.291"/>
		</g>
	</g>
</g>
<g>
	<g>
		<linearGradient id="SVGID_2_" gradientUnits="userSpaceOnUse" x1="723.2236" y1="581.6934" x2="794.2529" y2="581.6934">
			<stop  offset="0" style="stop-color:#000000"/>
			<stop  offset="0.2069" style="stop-color:#454849"/>
			<stop  offset="0.4384" style="stop-color:#505354"/>
			<stop  offset="0.5468" style="stop-color:#FBFFD4"/>
			<stop  offset="0.6502" style="stop-color:#919485"/>
			<stop  offset="0.7241" style="stop-color:#AAAD98"/>
			<stop  offset="0.9754" style="stop-color:#6A6D67"/>
			<stop  offset="1" style="stop-color:#CED1B2"/>
		</linearGradient>
		<path fill="url(#SVGID_2_)" d="M792.266,544.12l0.808,3.982c-0.128,0.744-0.376,1.522-0.751,2.296l-29.883,61.628
			c-1.502,3.1-4.472,4.959-6.632,4.154l-32.53-13.283c-0.385,2.236,1.368,4.171,2.989,4.775l30.59,11.407
			c2.159,0.806,5.129-1.053,6.631-4.153l29.883-61.628C794.873,550.199,794.425,544.925,792.266,544.12z"/>
	</g>
	<path d="M762.439,612.026c-1.502,3.1-4.472,4.959-6.632,4.154l-30.59-11.409c-2.16-0.805-2.692-3.972-1.189-7.071l29.883-61.627
		c1.502-3.1,4.471-4.96,6.631-4.154l30.592,11.408c2.159,0.806,2.691,3.973,1.188,7.071L762.439,612.026z"/>
	<linearGradient id="SVGID_3_" gradientUnits="userSpaceOnUse" x1="730.668" y1="599.5303" x2="787.1693" y2="542.8644">
		<stop  offset="0" style="stop-color:#484B4C"/>
		<stop  offset="0.4286" style="stop-color:#F0FCFF"/>
		<stop  offset="0.734" style="stop-color:#717778"/>
		<stop  offset="0.7438" style="stop-color:#FFFFFF"/>
		<stop  offset="1" style="stop-color:#747879"/>
	</linearGradient>
	<path fill="url(#SVGID_3_)" d="M762.407,606.835c-1.391,2.87-4.143,4.592-6.143,3.847l-28.334-10.566
		c-2-0.747-2.493-3.68-1.102-6.55l27.679-57.082c1.392-2.871,4.142-4.595,6.143-3.849l28.333,10.566
		c2.002,0.747,2.494,3.68,1.104,6.55L762.407,606.835z"/>
</g>
<linearGradient id="SVGID_4_" gradientUnits="userSpaceOnUse" x1="-2244.0479" y1="315.2471" x2="-2244.0479" y2="315.2471" gradientTransform="matrix(-0.4072 -0.0038 0.0092 -1 -238.0518 940.1229)">
	<stop  offset="0" style="stop-color:#000000"/>
	<stop  offset="0.2069" style="stop-color:#454849"/>
	<stop  offset="0.4384" style="stop-color:#505354"/>
	<stop  offset="0.5468" style="stop-color:#FBFFD4"/>
	<stop  offset="0.6502" style="stop-color:#919485"/>
	<stop  offset="0.7241" style="stop-color:#AAAD98"/>
	<stop  offset="0.9754" style="stop-color:#6A6D67"/>
	<stop  offset="1" style="stop-color:#CED1B2"/>
</linearGradient>
<path fill="url(#SVGID_4_)" d="M678.625,633.403"/>
<g>
	<rect x="892.396" y="144" fill="#CCCCCC" stroke="#666666" stroke-width="3" stroke-miterlimit="10" width="42" height="21"/>
	<path fill="#CCCCCC" stroke="#666666" stroke-width="3" stroke-miterlimit="10" d="M868.396,160.592
		c0,4.644-3.765,8.408-8.408,8.408h-56.184c-4.644,0-8.408-3.765-8.408-8.408V55.408c0-4.644,3.765-8.408,8.408-8.408h56.184
		c4.644,0,8.408,3.765,8.408,8.408V160.592z"/>
	<path fill="#E6E6E6" d="M861.896,158.093c0,4.644-3.764,8.407-8.408,8.407h-44.184c-4.645,0-8.408-3.764-8.408-8.407V65.907
		c0-4.644,3.764-8.407,8.408-8.407h44.184c4.645,0,8.408,3.764,8.408,8.407V158.093z"/>
	<rect x="807.896" y="66.5" fill="#B3B3B3" width="47" height="10"/>
	<rect x="807.896" y="81.5" fill="#B3B3B3" width="47" height="10"/>
	<rect x="807.896" y="96.5" fill="#B3B3B3" width="47" height="10"/>
	<circle fill="#CCCCCC" stroke="#29ABE2" stroke-width="4" stroke-miterlimit="10" cx="831.13" cy="152.101" r="7.357"/>
	<rect x="852.396" y="57" fill="#CCCCCC" stroke="#666666" stroke-width="3" stroke-miterlimit="10" width="120" height="94"/>
	
		<radialGradient id="SVGID_5_" cx="1020.6162" cy="54.1602" r="76.1374" fx="1071.4958" fy="18.4685" gradientTransform="matrix(0.8919 0 0 0.8919 14.1829 47.0822)" gradientUnits="userSpaceOnUse">
		<stop  offset="0" style="stop-color:#FFFFFF"/>
		<stop  offset="0.532" style="stop-color:#54C8FF"/>
		<stop  offset="1" style="stop-color:#0064E9"/>
	</radialGradient>
	<path fill="url(#SVGID_5_)" stroke="#0071BC" stroke-width="4" stroke-miterlimit="10" d="M960.896,135.002
		c0,4.141-3.357,7.498-7.499,7.498h-84.002c-4.142,0-7.499-3.357-7.499-7.498V71.998c0-4.141,3.357-7.498,7.499-7.498h84.002
		c4.142,0,7.499,3.357,7.499,7.498V135.002z"/>
	<g>
		<polygon fill="#CCCCCC" stroke="#666666" stroke-width="3" stroke-miterlimit="10" points="989.105,186.459 836.671,187.534 
			836.971,181.007 852.532,159.276 972.868,158.474 988.689,179.955 		"/>
		<g>
			<polygon fill="#999999" stroke="#CCCCCC" stroke-width="3" stroke-miterlimit="10" points="844.152,179.955 978.94,179.057 
				966.45,160.393 856.876,161.122 			"/>
			
				<line fill="none" stroke="#CCCCCC" stroke-width="3" stroke-miterlimit="10" x1="855.216" y1="163.633" x2="968.325" y2="162.879"/>
			<line fill="none" stroke="#CCCCCC" stroke-width="3" stroke-miterlimit="10" x1="852.741" y1="167.4" x2="970.85" y2="166.612"/>
			
				<line fill="none" stroke="#CCCCCC" stroke-width="3" stroke-miterlimit="10" x1="850.267" y1="171.166" x2="973.999" y2="170.342"/>
			
				<line fill="none" stroke="#CCCCCC" stroke-width="3" stroke-miterlimit="10" x1="847.796" y1="175.557" x2="975.903" y2="174.703"/>
			
				<line fill="none" stroke="#CCCCCC" stroke-width="3" stroke-miterlimit="10" x1="967.452" y1="178.768" x2="957.126" y2="159.648"/>
			
				<line fill="none" stroke="#CCCCCC" stroke-width="3" stroke-miterlimit="10" x1="955.085" y1="178.85" x2="947.068" y2="159.715"/>
			
				<line fill="none" stroke="#CCCCCC" stroke-width="3" stroke-miterlimit="10" x1="942.72" y1="178.934" x2="937.012" y2="159.782"/>
			
				<line fill="none" stroke="#CCCCCC" stroke-width="3" stroke-miterlimit="10" x1="930.354" y1="179.015" x2="926.954" y2="159.849"/>
			
				<line fill="none" stroke="#CCCCCC" stroke-width="3" stroke-miterlimit="10" x1="917.987" y1="179.098" x2="916.897" y2="159.916"/>
			
				<line fill="none" stroke="#CCCCCC" stroke-width="3" stroke-miterlimit="10" x1="905.622" y1="179.18" x2="906.841" y2="159.982"/>
			
				<line fill="none" stroke="#CCCCCC" stroke-width="3" stroke-miterlimit="10" x1="893.257" y1="179.262" x2="896.784" y2="160.051"/>
			
				<line fill="none" stroke="#CCCCCC" stroke-width="3" stroke-miterlimit="10" x1="881.405" y1="179.341" x2="887.146" y2="160.114"/>
			
				<line fill="none" stroke="#CCCCCC" stroke-width="3" stroke-miterlimit="10" x1="869.039" y1="179.424" x2="877.089" y2="160.182"/>
			
				<line fill="none" stroke="#CCCCCC" stroke-width="3" stroke-miterlimit="10" x1="856.674" y1="179.506" x2="867.032" y2="160.248"/>
		</g>
	</g>
</g>
<g>
	<path fill="#4D4D4D" stroke="#B3B3B3" stroke-miterlimit="10" d="M1115.978,326.539l-107.555,0.345l-1.771-38.704
		c-0.069-1.504,1.367-2.73,3.208-2.736l104.415-0.334c1.841-0.005,3.284,1.212,3.225,2.716L1115.978,326.539z"/>
	<linearGradient id="SVGID_6_" gradientUnits="userSpaceOnUse" x1="1064.7783" y1="323.9082" x2="1064.7783" y2="394.3924">
		<stop  offset="0.5327" style="stop-color:#6B707C"/>
		<stop  offset="0.6734" style="stop-color:#D4E7FF"/>
		<stop  offset="0.8262" style="stop-color:#D2E5FD"/>
		<stop  offset="0.8813" style="stop-color:#CDDFF6"/>
		<stop  offset="0.9206" style="stop-color:#C4D4EB"/>
		<stop  offset="0.9523" style="stop-color:#B6C5DA"/>
		<stop  offset="0.9791" style="stop-color:#A4B1C4"/>
		<stop  offset="1" style="stop-color:#929CAD"/>
	</linearGradient>
	<path fill="url(#SVGID_6_)" stroke="#B3B3B3" stroke-miterlimit="10" d="M1159.991,390.662c0,2.527-3.736,4.338-6.172,4.338H976.62
		c-2.436,0-6.172-1.811-6.172-4.338c0,0-7.053-17.953-7.053-22.3s7.935-40.755,7.935-40.755c0-2.526,2.854-4.607,5.29-4.607h177.199
		c2.436,0,5.29,2.141,5.29,4.667c0,0,7.053,36.761,7.053,42.021C1166.162,374.95,1159.991,390.662,1159.991,390.662z"/>
	<linearGradient id="SVGID_7_" gradientUnits="userSpaceOnUse" x1="1061.6924" y1="340.5024" x2="1061.6924" y2="269.4029">
		<stop  offset="0" style="stop-color:#DDDDDD"/>
		<stop  offset="0.0545" style="stop-color:#E4E4E4"/>
		<stop  offset="0.2133" style="stop-color:#F3F3F3"/>
		<stop  offset="0.3989" style="stop-color:#FCFCFC"/>
		<stop  offset="0.6734" style="stop-color:#FFFFFF"/>
		<stop  offset="0.8389" style="stop-color:#F9F9F9"/>
		<stop  offset="1" style="stop-color:#EEEEEE"/>
	</linearGradient>
	<path fill="url(#SVGID_7_)" stroke="#B3B3B3" stroke-miterlimit="10" d="M1108.858,359h-94.33c0,0-2.646-58.272-2.646-70.803
		s2.646-23.197,2.646-23.197h94.33c0,0,2.645,6.428,2.645,24.079C1111.503,306.729,1108.858,359,1108.858,359z"/>
	<linearGradient id="SVGID_8_" gradientUnits="userSpaceOnUse" x1="1064.7783" y1="317.73" x2="1064.7783" y2="395.8016">
		<stop  offset="0" style="stop-color:#BFCEE4"/>
		<stop  offset="0.2522" style="stop-color:#CADBF3"/>
		<stop  offset="0.4221" style="stop-color:#D4E7FF"/>
		<stop  offset="0.6926" style="stop-color:#D2E5FD"/>
		<stop  offset="0.79" style="stop-color:#CDDFF6"/>
		<stop  offset="0.8595" style="stop-color:#C4D4EB"/>
		<stop  offset="0.9156" style="stop-color:#B6C5DA"/>
		<stop  offset="0.9631" style="stop-color:#A4B1C4"/>
		<stop  offset="1" style="stop-color:#929CAD"/>
	</linearGradient>
	<path fill="url(#SVGID_8_)" stroke="#4D4D4D" stroke-miterlimit="10" d="M1139.714,397H988.962c0,0-7.935-4.941-7.935-29.744
		S988.962,317,988.962,317h21.158c0,0,15.348,17.632,54.218,17.632c38.869,0,48.929-17.632,48.929-17.632h26.447
		c0,0,8.816,25.076,8.816,48.957C1148.53,389.84,1139.714,397,1139.714,397z"/>
	<polygon fill="#4D4D4D" stroke="#999999" stroke-miterlimit="10" points="1120.54,392 1009.018,392 1007.476,377 1122.082,377 	"/>
	<path fill="#333333" d="M1123.868,421.567l-5.899-34.067h-106.673l-5.977,34.468c-0.225,1.37,1.195,2.165,3.174,2.159
		l112.218-0.225C1122.688,423.896,1124.102,422.936,1123.868,421.567z M1023.704,404.5l1.21-9h78.925l1.21,9H1023.704z"/>
	<circle fill="#CCCCCC" stroke="#70AA00" stroke-width="3" stroke-miterlimit="10" cx="1156.896" cy="371.227" r="3.958"/>
	<polygon fill="#1A1A1A" stroke="#666666" stroke-miterlimit="10" points="1117.766,385 1011.002,385 1010.391,379 1118.378,379 	
		"/>
	<path fill="#4D4D4D" stroke="#B3B3B3" stroke-miterlimit="10" d="M1123.868,420.439L1117.969,387h-106.673l-5.977,33.829
		c-0.225,1.332,1.195,2.265,3.174,2.259l112.218-0.299C1122.688,422.783,1124.102,421.771,1123.868,420.439z M1023.704,403l1.21-8
		h78.925l1.21,8H1023.704z"/>
	<polygon fill="#808080" stroke="#B3B3B3" stroke-miterlimit="10" points="1114.251,416 1014.425,416 1013.646,425 1115.029,425 	
		"/>
</g>
<g>
	<linearGradient id="SVGID_9_" gradientUnits="userSpaceOnUse" x1="594.0967" y1="321.7681" x2="603.3514" y2="321.7681">
		<stop  offset="0.0402" style="stop-color:#2A0200"/>
		<stop  offset="0.6332" style="stop-color:#1D1D1D"/>
		<stop  offset="0.6935" style="stop-color:#8B8B8B"/>
		<stop  offset="1" style="stop-color:#1D1D1D"/>
	</linearGradient>
	<path fill="url(#SVGID_9_)" stroke="#1A1A1A" stroke-width="2" stroke-miterlimit="10" d="M606.261,353.5h-7.271l0.921-62.51
		c0,0,0.695-0.954,2.715-0.954c2.021,0,2.715,0.942,2.715,0.942L606.261,353.5z"/>
	<linearGradient id="SVGID_10_" gradientUnits="userSpaceOnUse" x1="516.8125" y1="317.7476" x2="527.0652" y2="317.7476">
		<stop  offset="0.0402" style="stop-color:#2A0200"/>
		<stop  offset="0.6332" style="stop-color:#1D1D1D"/>
		<stop  offset="0.6935" style="stop-color:#8B8B8B"/>
		<stop  offset="1" style="stop-color:#1D1D1D"/>
	</linearGradient>
	<path fill="url(#SVGID_10_)" stroke="#1A1A1A" stroke-width="2" stroke-miterlimit="10" d="M530.029,349.5h-7.271l0.92-62.537
		c0,0,0.695-0.968,2.716-0.968s2.715,0.963,2.715,0.963L530.029,349.5z"/>
	<linearGradient id="SVGID_11_" gradientUnits="userSpaceOnUse" x1="563.2744" y1="380.8315" x2="622.4824" y2="380.8315">
		<stop  offset="0.005" style="stop-color:#1D1D1D"/>
		<stop  offset="0.3266" style="stop-color:#404040"/>
	</linearGradient>
	<polygon fill="url(#SVGID_11_)" stroke="#999999" stroke-width="2" stroke-miterlimit="10" points="622.471,380.501 
		563.274,404.66 563.286,377.107 622.482,357.003 	"/>
	<linearGradient id="SVGID_12_" gradientUnits="userSpaceOnUse" x1="526.042" y1="336.2607" x2="545.3545" y2="387.7877">
		<stop  offset="0" style="stop-color:#1D1D1D"/>
		<stop  offset="0.1256" style="stop-color:#1D1D1D"/>
		<stop  offset="0.397" style="stop-color:#3F3F3F"/>
		<stop  offset="0.9347" style="stop-color:#1D1D1D"/>
	</linearGradient>
	<path fill="url(#SVGID_12_)" stroke="#999999" stroke-width="2" stroke-miterlimit="10" d="M562.46,377.257l-112.721-11.523
		l55.969-20.254c19.861,1.854,37.21-5.84,57.581-3.939c20.369,1.901,38.108,12.866,57.571,14.651L562.46,377.257z"/>
	<g>
		<path fill="#3FA9F5" stroke="#0071BC" stroke-width="2" stroke-miterlimit="10" d="M562.46,404.83l-115.153-10.712l0.011-27.553
			c19.862,1.854,37.211-5.841,57.581-3.939c20.37,1.902,38.11,12.866,57.572,14.651L562.46,404.83z"/>
		
			<linearGradient id="SVGID_13_" gradientUnits="userSpaceOnUse" x1="478.1699" y1="378.7861" x2="542.8875" y2="344.2965" gradientTransform="matrix(0.9071 0.0847 -4.000000e-004 1 18.806 -16.5662)">
			<stop  offset="0.0402" style="stop-color:#2A0200"/>
			<stop  offset="0.6332" style="stop-color:#1D1D1D"/>
			<stop  offset="0.6935" style="stop-color:#8B8B8B"/>
			<stop  offset="1" style="stop-color:#1D1D1D"/>
		</linearGradient>
		<polygon fill="url(#SVGID_13_)" stroke="#000000" stroke-miterlimit="10" points="517.454,397.026 450.957,390.777 
			450.963,376.991 517.46,383.24 		"/>
		<path fill="#00FF00" d="M457.442,386.358c0,1.015-0.747,1.768-1.668,1.681c-0.92-0.085-1.666-0.977-1.666-1.992
			c0.001-1.015,0.748-1.769,1.668-1.683C456.697,384.451,457.442,385.344,457.442,386.358z"/>
		<path fill="#FF0000" d="M465.534,387.114c0,1.015-0.747,1.768-1.668,1.682c-0.92-0.086-1.666-0.979-1.665-1.993
			c0.001-1.015,0.747-1.768,1.667-1.682C464.789,385.207,465.534,386.099,465.534,387.114z"/>
		<path fill="#00FF00" d="M473.626,387.869c0,1.015-0.746,1.768-1.667,1.682c-0.921-0.085-1.667-0.979-1.666-1.994
			c0.001-1.014,0.747-1.767,1.667-1.681C472.881,385.962,473.626,386.855,473.626,387.869z"/>
		<path fill="#F7931E" d="M481.718,388.624c0,1.015-0.746,1.768-1.667,1.682c-0.921-0.086-1.666-0.978-1.666-1.993
			c0.001-1.014,0.747-1.768,1.667-1.682C480.974,386.717,481.719,387.61,481.718,388.624z"/>
		<polyline fill="none" stroke="#0071BC" stroke-width="2" stroke-miterlimit="10" points="548.115,380.929 558.414,381.779 
			558.407,399.031 		"/>
	</g>
	<path fill="#333333" stroke="#1A1A1A" stroke-width="2" stroke-miterlimit="10" d="M535.3,311.301"/>
</g>
<rect x="533.396" y="30" fill="#CCCCCC" stroke="#666666" stroke-width="3" stroke-miterlimit="10" width="93" height="74"/>
<radialGradient id="SVGID_14_" cx="647.6455" cy="-32.6304" r="67.6465" fx="692.851" fy="-64.3417" gradientTransform="matrix(0.8778 0 0 0.8333 22.7501 88.4316)" gradientUnits="userSpaceOnUse">
	<stop  offset="0" style="stop-color:#FFFFFF"/>
	<stop  offset="0.532" style="stop-color:#54C8FF"/>
	<stop  offset="1" style="stop-color:#0064E9"/>
</radialGradient>
<path fill="url(#SVGID_14_)" stroke="#0071BC" stroke-width="4" stroke-miterlimit="10" d="M622.896,94.03
	c0,3.451-2.288,6.47-5.925,6.47h-73.738c-3.637,0-6.337-3.019-6.337-6.47V41.546c0-3.452,2.7-6.046,6.337-6.046h73.738
	c3.637,0,5.925,2.594,5.925,6.046V94.03z"/>
<g>
	<polygon fill="#CCCCCC" stroke="#666666" stroke-width="3" stroke-miterlimit="10" points="639.795,126.694 520.671,127.534 
		520.905,122.434 533.066,105.451 627.105,104.824 639.47,121.611 	"/>
	<g>
		<polygon fill="#999999" stroke="#CCCCCC" stroke-width="3" stroke-miterlimit="10" points="526.518,121.611 631.852,120.909 
			622.091,106.323 536.461,106.894 		"/>
		
			<line fill="none" stroke="#CCCCCC" stroke-width="3" stroke-miterlimit="10" x1="535.163" y1="108.855" x2="623.556" y2="108.267"/>
		<line fill="none" stroke="#CCCCCC" stroke-width="3" stroke-miterlimit="10" x1="533.229" y1="111.8" x2="625.528" y2="111.185"/>
		
			<line fill="none" stroke="#CCCCCC" stroke-width="3" stroke-miterlimit="10" x1="531.296" y1="114.743" x2="627.989" y2="114.099"/>
		
			<line fill="none" stroke="#CCCCCC" stroke-width="3" stroke-miterlimit="10" x1="529.365" y1="118.174" x2="629.478" y2="117.507"/>
		
			<line fill="none" stroke="#CCCCCC" stroke-width="3" stroke-miterlimit="10" x1="622.873" y1="120.684" x2="614.804" y2="105.742"/>
		
			<line fill="none" stroke="#CCCCCC" stroke-width="3" stroke-miterlimit="10" x1="613.209" y1="120.747" x2="606.944" y2="105.794"/>
		
			<line fill="none" stroke="#CCCCCC" stroke-width="3" stroke-miterlimit="10" x1="603.546" y1="120.813" x2="599.085" y2="105.847"/>
		
			<line fill="none" stroke="#CCCCCC" stroke-width="3" stroke-miterlimit="10" x1="593.882" y1="120.876" x2="591.226" y2="105.898"/>
		
			<line fill="none" stroke="#CCCCCC" stroke-width="3" stroke-miterlimit="10" x1="584.218" y1="120.941" x2="583.366" y2="105.951"/>
		
			<line fill="none" stroke="#CCCCCC" stroke-width="3" stroke-miterlimit="10" x1="574.555" y1="121.006" x2="575.507" y2="106.003"/>
		
			<line fill="none" stroke="#CCCCCC" stroke-width="3" stroke-miterlimit="10" x1="564.892" y1="121.069" x2="567.648" y2="106.057"/>
		
			<line fill="none" stroke="#CCCCCC" stroke-width="3" stroke-miterlimit="10" x1="555.63" y1="121.131" x2="560.116" y2="106.106"/>
		
			<line fill="none" stroke="#CCCCCC" stroke-width="3" stroke-miterlimit="10" x1="545.966" y1="121.196" x2="552.257" y2="106.159"/>
		
			<line fill="none" stroke="#CCCCCC" stroke-width="3" stroke-miterlimit="10" x1="536.303" y1="121.26" x2="544.397" y2="106.211"/>
	</g>
</g>
<g>
	<g>
		<path fill="#4D4D4D" d="M-201.604,175.5c0,0.333,0,0.667,0,1c0,1.935,3,1.935,3,0c0-0.333,0-0.667,0-1
			C-198.604,173.565-201.604,173.565-201.604,175.5L-201.604,175.5z"/>
	</g>
</g>
<g>
	<linearGradient id="SVGID_15_" gradientUnits="userSpaceOnUse" x1="899.8428" y1="580.0615" x2="1094.6589" y2="580.0615">
		<stop  offset="0.3094" style="stop-color:#2D2D2D"/>
		<stop  offset="0.3166" style="stop-color:#474747"/>
		<stop  offset="0.9447" style="stop-color:#2D2D2D"/>
		<stop  offset="1" style="stop-color:#2F2F2F"/>
	</linearGradient>
	<polygon fill="url(#SVGID_15_)" points="1088.886,544.217 1089.037,564.841 960.609,615.906 896.896,595.787 896.896,569.689 	"/>
	<linearGradient id="SVGID_16_" gradientUnits="userSpaceOnUse" x1="1065.873" y1="558.7783" x2="1069.385" y2="567.7209">
		<stop  offset="0.3345" style="stop-color:#2D2D2D"/>
		<stop  offset="0.4171" style="stop-color:#474747"/>
		<stop  offset="1" style="stop-color:#6D6D6D"/>
	</linearGradient>
	<polygon fill="url(#SVGID_16_)" points="1095.947,544.989 1096.1,558.074 1038.835,580.299 1038.663,566.542 	"/>
	
		<linearGradient id="SVGID_17_" gradientUnits="userSpaceOnUse" x1="-3270.5889" y1="376.5137" x2="-2760.7256" y2="376.5137" gradientTransform="matrix(-0.4072 -0.0038 0.0092 -1 -238.0518 940.1229)">
		<stop  offset="0" style="stop-color:#555555"/>
		<stop  offset="0.6158" style="stop-color:#FFFFFF"/>
		<stop  offset="0.6207" style="stop-color:#161613"/>
		<stop  offset="1" style="stop-color:#2D2D2D"/>
	</linearGradient>
	<path fill="url(#SVGID_17_)" d="M1097.374,541.404l-128,49.677c0,0-12.833-10.589-31.693-17.264
		c-18.858-6.674-47.998-10.936-47.998-10.936l0.23,18.4c0,0,13.364,10.779,31.693,17.265c18.329,6.486,47.998,10.936,47.998,10.936
		l76.597-29.729l-0.203-11.793l51.458-20.14L1097.374,541.404z"/>
	
		<linearGradient id="SVGID_18_" gradientUnits="userSpaceOnUse" x1="949.9063" y1="539.1797" x2="969.8818" y2="589.6243" gradientTransform="matrix(1 0.0012 -0.0012 1 1.0071 -0.3232)">
		<stop  offset="0" style="stop-color:#3A3C3D"/>
		<stop  offset="0.1773" style="stop-color:#000000"/>
		<stop  offset="0.1773" style="stop-color:#050505"/>
		<stop  offset="0.9655" style="stop-color:#505354"/>
	</linearGradient>
	<path fill="url(#SVGID_18_)" d="M951.153,539.219c0,0,29.133,4.298,47.984,10.995c17.637,6.266,29.992,15.951,31.512,17.173
		l-61.308,23.706c0,0-12.819-10.606-31.673-17.304c-18.85-6.697-47.982-10.995-47.982-10.995L951.153,539.219z"/>
	<linearGradient id="SVGID_19_" gradientUnits="userSpaceOnUse" x1="1018.541" y1="525.7256" x2="1034.3513" y2="566.161">
		<stop  offset="0" style="stop-color:#1E2020"/>
		<stop  offset="0.2167" style="stop-color:#505354"/>
		<stop  offset="0.3054" style="stop-color:#FBFFD4"/>
		<stop  offset="0.3202" style="stop-color:#919485"/>
		<stop  offset="0.6502" style="stop-color:#6A6D67"/>
		<stop  offset="0.6835" style="stop-color:#5B5E59"/>
		<stop  offset="0.7455" style="stop-color:#454845"/>
		<stop  offset="0.8135" style="stop-color:#353837"/>
		<stop  offset="0.8911" style="stop-color:#2C2F2F"/>
		<stop  offset="1" style="stop-color:#292C2C"/>
	</linearGradient>
	<path fill="url(#SVGID_19_)" d="M951.12,539.23c0,0,29.141,4.262,47.999,10.935c17.644,6.245,30.011,15.914,31.533,17.135
		l66.722-25.896c0,0-13.363-10.778-31.692-17.264c-17.158-6.072-44.253-10.359-47.642-10.882L951.12,539.23z"/>
</g>
<g>
	<g>
		<g>
			<path fill="#666666" d="M515.546,170.061c18.912,15.66,40.759,20.95,64.926,21.041c1.935,0.007,1.935-2.993,0-3
				c-23.313-0.088-44.535-5.034-62.805-20.162C516.189,166.715,514.055,168.826,515.546,170.061L515.546,170.061z"/>
		</g>
	</g>
	<g>
		<g>
			<path fill="#666666" d="M496.415,180.664c12.991,10.814,27.469,19.164,43.647,24.175c16.254,5.034,33.489,6.219,50.409,6.263
				c1.935,0.005,1.935-2.995,0-3c-16.271-0.042-32.497-1.292-48.21-5.741c-16.2-4.587-30.839-13.092-43.726-23.818
				C497.061,177.314,494.927,179.425,496.415,180.664L496.415,180.664z"/>
		</g>
	</g>
	<g>
		<g>
			<path fill="#666666" d="M475.415,194.664c16.084,13.42,34.078,23.838,54.113,30.094c20.538,6.414,42.299,7.962,63.697,8.006
				c1.935,0.004,1.935-2.996,0-3c-20.269-0.042-40.526-1.575-60.11-7.072c-20.59-5.779-39.22-16.5-55.579-30.149
				C476.063,191.313,473.928,193.423,475.415,194.664L475.415,194.664z"/>
		</g>
	</g>
	<g>
		<g>
			<path fill="#666666" d="M533.546,160.061c12.027,9.857,25.65,13.222,40.979,13.316c1.936,0.012,1.934-2.988,0-3
				c-14.478-0.089-27.468-3.102-38.858-12.438C534.184,156.724,532.049,158.833,533.546,160.061L533.546,160.061z"/>
		</g>
	</g>
</g>
<g>
	<g>
		<g>
			<path fill="#666666" d="M749.271,475.876c-23.231,7.85-39.221,23.739-51.957,44.23c-1.024,1.647,1.571,3.153,2.59,1.514
				c12.313-19.811,27.684-35.255,50.164-42.852C751.891,478.153,751.108,475.255,749.271,475.876L749.271,475.876z"/>
		</g>
	</g>
	<g>
		<g>
			<path fill="#666666" d="M750.289,454.026c-16.04,5.377-30.766,13.363-43.521,24.524c-12.786,11.188-22.822,25.208-31.727,39.568
				c-1.022,1.648,1.573,3.154,2.59,1.514c8.588-13.849,18.197-27.026,30.261-38.068c12.405-11.354,27.317-19.322,43.194-24.646
				C752.911,456.308,752.128,453.409,750.289,454.026L750.289,454.026z"/>
		</g>
	</g>
	<g>
		<g>
			<path fill="#666666" d="M749.397,428.803c-20.117,6.721-38.635,16.772-54.596,30.803c-15.958,14.028-28.515,31.518-39.644,49.486
				c-1.022,1.649,1.574,3.154,2.59,1.514c10.813-17.457,22.941-34.103,38.176-47.984c15.609-14.223,34.317-24.26,54.271-30.926
				C752.02,431.086,751.237,428.188,749.397,428.803L749.397,428.803z"/>
		</g>
	</g>
	<g>
		<g>
			<path fill="#666666" d="M748.333,496.445c-14.687,5.035-24.714,14.937-32.813,27.905c-1.028,1.646,1.568,3.15,2.59,1.514
				c7.673-12.285,17.09-21.75,31.02-26.526C750.949,498.715,750.168,495.816,748.333,496.445L748.333,496.445z"/>
		</g>
	</g>
</g>
<g>
	<path d="M329.783,306.907c0-1.969,1.177-3.36,3.097-4.177l-0.024-0.072c-1.728-0.815-2.472-2.16-2.472-3.504
		c0-2.473,2.088-4.152,4.824-4.152c3.024,0,4.536,1.896,4.536,3.84c0,1.32-0.647,2.736-2.568,3.648v0.072
		c1.944,0.768,3.145,2.136,3.145,4.032c0,2.712-2.328,4.536-5.305,4.536C331.752,311.13,329.783,309.187,329.783,306.907z
		 M338.185,306.81c0-1.896-1.32-2.808-3.433-3.408c-1.824,0.528-2.809,1.729-2.809,3.217c-0.071,1.584,1.129,2.976,3.121,2.976
		C336.96,309.594,338.185,308.418,338.185,306.81z M332.376,299.009c0,1.561,1.176,2.4,2.977,2.881
		c1.344-0.456,2.376-1.416,2.376-2.832c0-1.248-0.744-2.545-2.641-2.545C333.336,296.513,332.376,297.666,332.376,299.009z"/>
	<path d="M342.287,310.867v-1.296l1.656-1.608c3.984-3.792,5.784-5.809,5.809-8.161c0-1.584-0.769-3.048-3.097-3.048
		c-1.416,0-2.592,0.72-3.313,1.32l-0.672-1.488c1.08-0.912,2.616-1.584,4.417-1.584c3.36,0,4.776,2.304,4.776,4.536
		c0,2.88-2.089,5.209-5.377,8.377l-1.248,1.152v0.048h7.009v1.752H342.287z"/>
	<path d="M354.767,309.619c0-0.888,0.601-1.512,1.44-1.512s1.416,0.624,1.416,1.512c0,0.864-0.552,1.512-1.44,1.512
		C355.343,311.13,354.767,310.483,354.767,309.619z"/>
	<path d="M364.15,297.234h-0.048l-2.712,1.464l-0.408-1.608l3.408-1.824h1.801v15.602h-2.041V297.234z"/>
	<path d="M382.247,302.898c0,5.305-1.969,8.232-5.425,8.232c-3.048,0-5.112-2.855-5.16-8.017c0-5.232,2.256-8.112,5.424-8.112
		C380.375,295.001,382.247,297.929,382.247,302.898z M373.774,303.138c0,4.057,1.248,6.36,3.168,6.36
		c2.16,0,3.192-2.521,3.192-6.505c0-3.84-0.984-6.36-3.168-6.36C375.118,296.633,373.774,298.89,373.774,303.138z"/>
	<path d="M384.357,309.619c0-0.888,0.601-1.512,1.44-1.512s1.416,0.624,1.416,1.512c0,0.864-0.552,1.512-1.44,1.512
		C384.934,311.13,384.357,310.483,384.357,309.619z"/>
	<path d="M389.157,310.867v-1.296l1.656-1.608c3.984-3.792,5.784-5.809,5.809-8.161c0-1.584-0.769-3.048-3.097-3.048
		c-1.416,0-2.592,0.72-3.313,1.32l-0.672-1.488c1.08-0.912,2.616-1.584,4.417-1.584c3.36,0,4.776,2.304,4.776,4.536
		c0,2.88-2.089,5.209-5.377,8.377l-1.248,1.152v0.048h7.009v1.752H389.157z"/>
	<path d="M410.781,297.042h-5.952l-0.6,4.009c0.359-0.049,0.695-0.097,1.271-0.097c1.2,0,2.4,0.265,3.36,0.84
		c1.225,0.696,2.232,2.041,2.232,4.009c0,3.048-2.425,5.328-5.809,5.328c-1.704,0-3.145-0.479-3.889-0.96l0.528-1.608
		c0.648,0.385,1.92,0.864,3.336,0.864c1.992,0,3.696-1.296,3.696-3.384c-0.023-2.017-1.368-3.456-4.488-3.456
		c-0.888,0-1.584,0.096-2.16,0.168l1.009-7.489h7.464V297.042z"/>
	<path d="M424.149,302.898c0,5.305-1.969,8.232-5.425,8.232c-3.048,0-5.112-2.855-5.16-8.017c0-5.232,2.256-8.112,5.424-8.112
		C422.277,295.001,424.149,297.929,424.149,302.898z M415.677,303.138c0,4.057,1.248,6.36,3.168,6.36
		c2.16,0,3.192-2.521,3.192-6.505c0-3.84-0.984-6.36-3.168-6.36C417.021,296.633,415.677,298.89,415.677,303.138z"/>
	<path d="M426.261,309.619c0-0.888,0.601-1.512,1.44-1.512s1.416,0.624,1.416,1.512c0,0.864-0.552,1.512-1.44,1.512
		C426.837,311.13,426.261,310.483,426.261,309.619z"/>
	<path d="M435.644,297.234h-0.048l-2.712,1.464l-0.408-1.608l3.408-1.824h1.801v15.602h-2.041V297.234z"/>
	<path d="M444.597,309.378c0.455,0.048,0.983,0,1.704-0.072c1.224-0.168,2.376-0.672,3.264-1.512
		c1.032-0.937,1.776-2.305,2.064-4.152h-0.072c-0.864,1.056-2.112,1.68-3.672,1.68c-2.809,0-4.608-2.111-4.608-4.776
		c0-2.952,2.136-5.544,5.328-5.544s5.16,2.592,5.16,6.576c0,3.433-1.151,5.833-2.688,7.321c-1.2,1.176-2.856,1.896-4.537,2.088
		c-0.768,0.12-1.439,0.144-1.943,0.12V309.378z M445.364,300.402c0,1.944,1.176,3.313,3,3.313c1.416,0,2.521-0.696,3.072-1.633
		c0.12-0.191,0.192-0.432,0.192-0.768c0-2.664-0.984-4.704-3.192-4.704C446.637,296.61,445.364,298.194,445.364,300.402z"/>
</g>
<g>
	<path d="M487.382,424.64h-0.048l-2.712,1.464l-0.408-1.608l3.408-1.824h1.801v15.602h-2.041V424.64z"/>
	<path d="M496.333,436.784c0.456,0.048,0.984,0,1.705-0.072c1.224-0.168,2.376-0.672,3.264-1.512
		c1.032-0.937,1.776-2.305,2.064-4.152h-0.072c-0.864,1.056-2.112,1.68-3.672,1.68c-2.809,0-4.608-2.111-4.608-4.776
		c0-2.952,2.136-5.544,5.328-5.544s5.16,2.592,5.16,6.576c0,3.433-1.151,5.833-2.688,7.321c-1.2,1.176-2.856,1.896-4.537,2.088
		c-0.768,0.12-1.439,0.144-1.944,0.12V436.784z M497.102,427.808c0,1.944,1.176,3.313,3,3.313c1.416,0,2.521-0.696,3.072-1.633
		c0.12-0.191,0.192-0.432,0.192-0.768c0-2.664-0.984-4.704-3.192-4.704C498.374,424.016,497.102,425.6,497.102,427.808z"/>
	<path d="M507.421,438.272v-1.296l1.656-1.608c3.984-3.792,5.784-5.809,5.809-8.161c0-1.584-0.769-3.048-3.097-3.048
		c-1.416,0-2.592,0.72-3.313,1.32l-0.672-1.488c1.08-0.912,2.616-1.584,4.417-1.584c3.36,0,4.776,2.304,4.776,4.536
		c0,2.88-2.089,5.209-5.377,8.377l-1.248,1.152v0.048h7.009v1.752H507.421z"/>
	<path d="M519.9,437.024c0-0.888,0.601-1.512,1.44-1.512s1.416,0.624,1.416,1.512c0,0.864-0.552,1.512-1.44,1.512
		C520.477,438.536,519.9,437.889,519.9,437.024z"/>
	<path d="M529.284,424.64h-0.048l-2.712,1.464l-0.408-1.608l3.408-1.824h1.801v15.602h-2.041V424.64z"/>
	<path d="M545.917,424.159c-0.433-0.024-0.984,0-1.585,0.096c-3.312,0.553-5.064,2.977-5.424,5.545h0.071
		c0.744-0.984,2.041-1.8,3.769-1.8c2.761,0,4.704,1.992,4.704,5.04c0,2.856-1.943,5.496-5.184,5.496
		c-3.337,0-5.521-2.592-5.521-6.648c0-3.072,1.104-5.496,2.64-7.032c1.296-1.272,3.024-2.064,4.992-2.305
		c0.625-0.096,1.152-0.12,1.537-0.12V424.159z M545.316,433.16c0-2.232-1.272-3.576-3.216-3.576c-1.272,0-2.448,0.792-3.024,1.92
		c-0.145,0.24-0.24,0.552-0.24,0.937c0.048,2.567,1.224,4.464,3.433,4.464C544.093,436.904,545.316,435.393,545.316,433.16z"/>
	<path d="M549.131,434.313c0-1.969,1.177-3.36,3.097-4.177l-0.024-0.072c-1.728-0.815-2.472-2.16-2.472-3.504
		c0-2.473,2.088-4.152,4.824-4.152c3.024,0,4.536,1.896,4.536,3.84c0,1.32-0.647,2.736-2.568,3.648v0.072
		c1.944,0.768,3.145,2.136,3.145,4.032c0,2.712-2.328,4.536-5.305,4.536C551.1,438.536,549.131,436.593,549.131,434.313z
		 M557.532,434.216c0-1.896-1.32-2.808-3.433-3.408c-1.824,0.528-2.809,1.729-2.809,3.217c-0.071,1.584,1.129,2.976,3.121,2.976
		C556.308,437,557.532,435.824,557.532,434.216z M551.724,426.415c0,1.561,1.176,2.4,2.977,2.881
		c1.344-0.456,2.376-1.416,2.376-2.832c0-1.248-0.744-2.545-2.641-2.545C552.684,423.919,551.724,425.071,551.724,426.415z"/>
	<path d="M561.804,437.024c0-0.888,0.601-1.512,1.44-1.512s1.416,0.624,1.416,1.512c0,0.864-0.552,1.512-1.44,1.512
		C562.38,438.536,561.804,437.889,561.804,437.024z"/>
	<path d="M576.972,430.304c0,5.305-1.969,8.232-5.425,8.232c-3.048,0-5.112-2.855-5.16-8.017c0-5.232,2.256-8.112,5.424-8.112
		C575.1,422.407,576.972,425.335,576.972,430.304z M568.499,430.544c0,4.057,1.248,6.36,3.168,6.36c2.16,0,3.192-2.521,3.192-6.505
		c0-3.84-0.984-6.36-3.168-6.36C569.843,424.039,568.499,426.296,568.499,430.544z"/>
	<path d="M579.083,437.024c0-0.888,0.601-1.512,1.44-1.512s1.416,0.624,1.416,1.512c0,0.864-0.552,1.512-1.44,1.512
		C579.659,438.536,579.083,437.889,579.083,437.024z"/>
	<path d="M588.466,424.64h-0.048l-2.712,1.464l-0.408-1.608l3.408-1.824h1.801v15.602h-2.041V424.64z"/>
</g>
<g>
	<path d="M551.64,751.689h-0.048l-2.712,1.464l-0.408-1.608l3.408-1.824h1.801v15.602h-2.041V751.689z"/>
	<path d="M560.591,763.834c0.456,0.048,0.984,0,1.705-0.072c1.224-0.168,2.376-0.672,3.264-1.512
		c1.032-0.937,1.776-2.305,2.064-4.152h-0.072c-0.864,1.056-2.112,1.68-3.672,1.68c-2.809,0-4.608-2.111-4.608-4.776
		c0-2.952,2.136-5.544,5.328-5.544s5.16,2.592,5.16,6.576c0,3.433-1.151,5.833-2.688,7.321c-1.2,1.176-2.856,1.896-4.537,2.088
		c-0.768,0.12-1.439,0.144-1.944,0.12V763.834z M561.359,754.857c0,1.944,1.176,3.313,3,3.313c1.416,0,2.521-0.696,3.072-1.633
		c0.12-0.191,0.192-0.432,0.192-0.768c0-2.664-0.984-4.704-3.192-4.704C562.632,751.065,561.359,752.649,561.359,754.857z"/>
	<path d="M571.679,765.322v-1.296l1.656-1.608c3.984-3.792,5.784-5.809,5.809-8.161c0-1.584-0.769-3.048-3.097-3.048
		c-1.416,0-2.592,0.72-3.313,1.32l-0.672-1.488c1.08-0.912,2.616-1.584,4.417-1.584c3.36,0,4.776,2.304,4.776,4.536
		c0,2.88-2.089,5.209-5.377,8.377l-1.248,1.152v0.048h7.009v1.752H571.679z"/>
	<path d="M584.158,764.074c0-0.888,0.601-1.512,1.44-1.512s1.416,0.624,1.416,1.512c0,0.864-0.552,1.512-1.44,1.512
		C584.734,765.586,584.158,764.938,584.158,764.074z"/>
	<path d="M593.542,751.689h-0.048l-2.712,1.464l-0.408-1.608l3.408-1.824h1.801v15.602h-2.041V751.689z"/>
	<path d="M610.175,751.209c-0.433-0.024-0.984,0-1.585,0.096c-3.312,0.553-5.064,2.977-5.424,5.545h0.071
		c0.744-0.984,2.041-1.8,3.769-1.8c2.761,0,4.704,1.992,4.704,5.04c0,2.856-1.943,5.496-5.184,5.496
		c-3.337,0-5.521-2.592-5.521-6.648c0-3.072,1.104-5.496,2.64-7.032c1.296-1.272,3.024-2.064,4.992-2.305
		c0.625-0.096,1.152-0.12,1.537-0.12V751.209z M609.574,760.21c0-2.232-1.272-3.576-3.216-3.576c-1.272,0-2.448,0.792-3.024,1.92
		c-0.145,0.24-0.24,0.552-0.24,0.937c0.048,2.567,1.224,4.464,3.433,4.464C608.351,763.954,609.574,762.442,609.574,760.21z"/>
	<path d="M613.389,761.362c0-1.969,1.177-3.36,3.097-4.177l-0.024-0.072c-1.728-0.815-2.472-2.16-2.472-3.504
		c0-2.473,2.088-4.152,4.824-4.152c3.024,0,4.536,1.896,4.536,3.84c0,1.32-0.647,2.736-2.568,3.648v0.072
		c1.944,0.768,3.145,2.136,3.145,4.032c0,2.712-2.328,4.536-5.305,4.536C615.357,765.586,613.389,763.643,613.389,761.362z
		 M621.79,761.266c0-1.896-1.32-2.808-3.433-3.408c-1.824,0.528-2.809,1.729-2.809,3.217c-0.071,1.584,1.129,2.976,3.121,2.976
		C620.565,764.05,621.79,762.874,621.79,761.266z M615.981,753.465c0,1.561,1.176,2.4,2.977,2.881
		c1.344-0.456,2.376-1.416,2.376-2.832c0-1.248-0.744-2.545-2.641-2.545C616.941,750.969,615.981,752.121,615.981,753.465z"/>
	<path d="M626.062,764.074c0-0.888,0.601-1.512,1.44-1.512s1.416,0.624,1.416,1.512c0,0.864-0.552,1.512-1.44,1.512
		C626.638,765.586,626.062,764.938,626.062,764.074z"/>
	<path d="M641.229,757.354c0,5.305-1.969,8.232-5.425,8.232c-3.048,0-5.112-2.855-5.16-8.017c0-5.232,2.256-8.112,5.424-8.112
		C639.357,749.457,641.229,752.385,641.229,757.354z M632.757,757.594c0,4.057,1.248,6.36,3.168,6.36
		c2.16,0,3.192-2.521,3.192-6.505c0-3.84-0.984-6.36-3.168-6.36C634.101,751.089,632.757,753.346,632.757,757.594z"/>
	<path d="M643.341,764.074c0-0.888,0.601-1.512,1.44-1.512s1.416,0.624,1.416,1.512c0,0.864-0.552,1.512-1.44,1.512
		C643.917,765.586,643.341,764.938,643.341,764.074z"/>
	<path d="M652.724,751.689h-0.048l-2.712,1.464l-0.408-1.608l3.408-1.824h1.801v15.602h-2.041V751.689z"/>
	<path d="M670.821,757.354c0,5.305-1.969,8.232-5.425,8.232c-3.048,0-5.112-2.855-5.16-8.017c0-5.232,2.256-8.112,5.424-8.112
		C668.949,749.457,670.821,752.385,670.821,757.354z M662.349,757.594c0,4.057,1.248,6.36,3.168,6.36
		c2.16,0,3.192-2.521,3.192-6.505c0-3.84-0.984-6.36-3.168-6.36C663.692,751.089,662.349,753.346,662.349,757.594z"/>
	<path d="M672.764,765.322v-1.296l1.656-1.608c3.984-3.792,5.784-5.809,5.809-8.161c0-1.584-0.769-3.048-3.097-3.048
		c-1.416,0-2.592,0.72-3.313,1.32l-0.672-1.488c1.08-0.912,2.616-1.584,4.417-1.584c3.36,0,4.776,2.304,4.776,4.536
		c0,2.88-2.089,5.209-5.377,8.377l-1.248,1.152v0.048h7.009v1.752H672.764z"/>
</g>
<g>
	<path d="M713.64,624.689h-0.048l-2.712,1.464l-0.408-1.608l3.408-1.824h1.801v15.602h-2.041V624.689z"/>
	<path d="M722.591,636.834c0.456,0.048,0.984,0,1.705-0.072c1.224-0.168,2.376-0.672,3.264-1.512
		c1.032-0.937,1.776-2.305,2.064-4.152h-0.072c-0.864,1.056-2.112,1.68-3.672,1.68c-2.809,0-4.608-2.111-4.608-4.776
		c0-2.952,2.136-5.544,5.328-5.544s5.16,2.592,5.16,6.576c0,3.433-1.151,5.833-2.688,7.321c-1.2,1.176-2.856,1.896-4.537,2.088
		c-0.768,0.12-1.439,0.144-1.944,0.12V636.834z M723.359,627.857c0,1.944,1.176,3.313,3,3.313c1.416,0,2.521-0.696,3.072-1.633
		c0.12-0.191,0.192-0.432,0.192-0.768c0-2.664-0.984-4.704-3.192-4.704C724.632,624.065,723.359,625.649,723.359,627.857z"/>
	<path d="M733.679,638.322v-1.296l1.656-1.608c3.984-3.792,5.784-5.809,5.809-8.161c0-1.584-0.769-3.048-3.097-3.048
		c-1.416,0-2.592,0.72-3.313,1.32l-0.672-1.488c1.08-0.912,2.616-1.584,4.417-1.584c3.36,0,4.776,2.304,4.776,4.536
		c0,2.88-2.089,5.209-5.377,8.377l-1.248,1.152v0.048h7.009v1.752H733.679z"/>
	<path d="M746.158,637.074c0-0.888,0.601-1.512,1.44-1.512s1.416,0.624,1.416,1.512c0,0.864-0.552,1.512-1.44,1.512
		C746.734,638.586,746.158,637.938,746.158,637.074z"/>
	<path d="M755.542,624.689h-0.048l-2.712,1.464l-0.408-1.608l3.408-1.824h1.801v15.602h-2.041V624.689z"/>
	<path d="M772.175,624.209c-0.433-0.024-0.984,0-1.585,0.096c-3.312,0.553-5.064,2.977-5.424,5.545h0.071
		c0.744-0.984,2.041-1.8,3.769-1.8c2.761,0,4.704,1.992,4.704,5.04c0,2.856-1.943,5.496-5.184,5.496
		c-3.337,0-5.521-2.592-5.521-6.648c0-3.072,1.104-5.496,2.64-7.032c1.296-1.272,3.024-2.064,4.992-2.305
		c0.625-0.096,1.152-0.12,1.537-0.12V624.209z M771.574,633.21c0-2.232-1.272-3.576-3.216-3.576c-1.272,0-2.448,0.792-3.024,1.92
		c-0.145,0.24-0.24,0.552-0.24,0.937c0.048,2.567,1.224,4.464,3.433,4.464C770.351,636.954,771.574,635.442,771.574,633.21z"/>
	<path d="M775.389,634.362c0-1.969,1.177-3.36,3.097-4.177l-0.024-0.072c-1.728-0.815-2.472-2.16-2.472-3.504
		c0-2.473,2.088-4.152,4.824-4.152c3.024,0,4.536,1.896,4.536,3.84c0,1.32-0.647,2.736-2.568,3.648v0.072
		c1.944,0.768,3.145,2.136,3.145,4.032c0,2.712-2.328,4.536-5.305,4.536C777.357,638.586,775.389,636.643,775.389,634.362z
		 M783.79,634.266c0-1.896-1.32-2.808-3.433-3.408c-1.824,0.528-2.809,1.729-2.809,3.217c-0.071,1.584,1.129,2.976,3.121,2.976
		C782.565,637.05,783.79,635.874,783.79,634.266z M777.981,626.465c0,1.561,1.176,2.4,2.977,2.881
		c1.344-0.456,2.376-1.416,2.376-2.832c0-1.248-0.744-2.545-2.641-2.545C778.941,623.969,777.981,625.121,777.981,626.465z"/>
	<path d="M788.062,637.074c0-0.888,0.601-1.512,1.44-1.512s1.416,0.624,1.416,1.512c0,0.864-0.552,1.512-1.44,1.512
		C788.638,638.586,788.062,637.938,788.062,637.074z"/>
	<path d="M803.229,630.354c0,5.305-1.969,8.232-5.425,8.232c-3.048,0-5.112-2.855-5.16-8.017c0-5.232,2.256-8.112,5.424-8.112
		C801.357,622.457,803.229,625.385,803.229,630.354z M794.757,630.594c0,4.057,1.248,6.36,3.168,6.36
		c2.16,0,3.192-2.521,3.192-6.505c0-3.84-0.984-6.36-3.168-6.36C796.101,624.089,794.757,626.346,794.757,630.594z"/>
	<path d="M805.341,637.074c0-0.888,0.601-1.512,1.44-1.512s1.416,0.624,1.416,1.512c0,0.864-0.552,1.512-1.44,1.512
		C805.917,638.586,805.341,637.938,805.341,637.074z"/>
	<path d="M814.724,624.689h-0.048l-2.712,1.464l-0.408-1.608l3.408-1.824h1.801v15.602h-2.041V624.689z"/>
	<path d="M832.821,630.354c0,5.305-1.969,8.232-5.425,8.232c-3.048,0-5.112-2.855-5.16-8.017c0-5.232,2.256-8.112,5.424-8.112
		C830.949,622.457,832.821,625.385,832.821,630.354z M824.349,630.594c0,4.057,1.248,6.36,3.168,6.36
		c2.16,0,3.192-2.521,3.192-6.505c0-3.84-0.984-6.36-3.168-6.36C825.692,624.089,824.349,626.346,824.349,630.594z"/>
	<path d="M845.133,630.354c0,5.305-1.969,8.232-5.425,8.232c-3.048,0-5.112-2.855-5.16-8.017c0-5.232,2.256-8.112,5.424-8.112
		C843.261,622.457,845.133,625.385,845.133,630.354z M836.66,630.594c0,4.057,1.248,6.36,3.168,6.36c2.16,0,3.192-2.521,3.192-6.505
		c0-3.84-0.984-6.36-3.168-6.36C838.004,624.089,836.66,626.346,836.66,630.594z"/>
</g>
<g>
	<path d="M993.64,614.689h-0.048l-2.712,1.464l-0.408-1.608l3.408-1.824h1.801v15.602h-2.041V614.689z"/>
	<path d="M1002.591,626.834c0.456,0.048,0.984,0,1.705-0.072c1.224-0.168,2.376-0.672,3.264-1.512
		c1.032-0.937,1.776-2.305,2.064-4.152h-0.072c-0.864,1.056-2.112,1.68-3.672,1.68c-2.809,0-4.608-2.111-4.608-4.776
		c0-2.952,2.136-5.544,5.328-5.544s5.16,2.592,5.16,6.576c0,3.433-1.151,5.833-2.688,7.321c-1.2,1.176-2.856,1.896-4.537,2.088
		c-0.768,0.12-1.439,0.144-1.944,0.12V626.834z M1003.359,617.857c0,1.944,1.176,3.313,3,3.313c1.416,0,2.521-0.696,3.072-1.633
		c0.12-0.191,0.192-0.432,0.192-0.768c0-2.664-0.984-4.704-3.192-4.704C1004.632,614.065,1003.359,615.649,1003.359,617.857z"/>
	<path d="M1013.679,628.322v-1.296l1.656-1.608c3.984-3.792,5.784-5.809,5.809-8.161c0-1.584-0.769-3.048-3.097-3.048
		c-1.416,0-2.592,0.72-3.313,1.32l-0.672-1.488c1.08-0.912,2.616-1.584,4.417-1.584c3.36,0,4.776,2.304,4.776,4.536
		c0,2.88-2.089,5.209-5.377,8.377l-1.248,1.152v0.048h7.009v1.752H1013.679z"/>
	<path d="M1026.158,627.074c0-0.888,0.601-1.512,1.44-1.512s1.416,0.624,1.416,1.512c0,0.864-0.552,1.512-1.44,1.512
		C1026.734,628.586,1026.158,627.938,1026.158,627.074z"/>
	<path d="M1035.542,614.689h-0.048l-2.712,1.464l-0.408-1.608l3.408-1.824h1.801v15.602h-2.041V614.689z"/>
	<path d="M1052.175,614.209c-0.433-0.024-0.984,0-1.585,0.096c-3.312,0.553-5.064,2.977-5.424,5.545h0.071
		c0.744-0.984,2.041-1.8,3.769-1.8c2.761,0,4.704,1.992,4.704,5.04c0,2.856-1.943,5.496-5.184,5.496
		c-3.337,0-5.521-2.592-5.521-6.648c0-3.072,1.104-5.496,2.64-7.032c1.296-1.272,3.024-2.064,4.992-2.305
		c0.625-0.096,1.152-0.12,1.537-0.12V614.209z M1051.574,623.21c0-2.232-1.272-3.576-3.216-3.576c-1.272,0-2.448,0.792-3.024,1.92
		c-0.145,0.24-0.24,0.552-0.24,0.937c0.048,2.567,1.224,4.464,3.433,4.464C1050.351,626.954,1051.574,625.442,1051.574,623.21z"/>
	<path d="M1055.389,624.362c0-1.969,1.177-3.36,3.097-4.177l-0.024-0.072c-1.728-0.815-2.472-2.16-2.472-3.504
		c0-2.473,2.088-4.152,4.824-4.152c3.024,0,4.536,1.896,4.536,3.84c0,1.32-0.647,2.736-2.568,3.648v0.072
		c1.944,0.768,3.145,2.136,3.145,4.032c0,2.712-2.328,4.536-5.305,4.536C1057.357,628.586,1055.389,626.643,1055.389,624.362z
		 M1063.79,624.266c0-1.896-1.32-2.808-3.433-3.408c-1.824,0.528-2.809,1.729-2.809,3.217c-0.071,1.584,1.129,2.976,3.121,2.976
		C1062.565,627.05,1063.79,625.874,1063.79,624.266z M1057.981,616.465c0,1.561,1.176,2.4,2.977,2.881
		c1.344-0.456,2.376-1.416,2.376-2.832c0-1.248-0.744-2.545-2.641-2.545C1058.941,613.969,1057.981,615.121,1057.981,616.465z"/>
	<path d="M1068.062,627.074c0-0.888,0.601-1.512,1.44-1.512s1.416,0.624,1.416,1.512c0,0.864-0.552,1.512-1.44,1.512
		C1068.638,628.586,1068.062,627.938,1068.062,627.074z"/>
	<path d="M1083.229,620.354c0,5.305-1.969,8.232-5.425,8.232c-3.048,0-5.112-2.855-5.16-8.017c0-5.232,2.256-8.112,5.424-8.112
		C1081.357,612.457,1083.229,615.385,1083.229,620.354z M1074.757,620.594c0,4.057,1.248,6.36,3.168,6.36
		c2.16,0,3.192-2.521,3.192-6.505c0-3.84-0.984-6.36-3.168-6.36C1076.101,614.089,1074.757,616.346,1074.757,620.594z"/>
	<path d="M1085.341,627.074c0-0.888,0.601-1.512,1.44-1.512s1.416,0.624,1.416,1.512c0,0.864-0.552,1.512-1.44,1.512
		C1085.917,628.586,1085.341,627.938,1085.341,627.074z"/>
	<path d="M1094.724,614.689h-0.048l-2.712,1.464l-0.408-1.608l3.408-1.824h1.801v15.602h-2.041V614.689z"/>
	<path d="M1112.821,620.354c0,5.305-1.969,8.232-5.425,8.232c-3.048,0-5.112-2.855-5.16-8.017c0-5.232,2.256-8.112,5.424-8.112
		C1110.949,612.457,1112.821,615.385,1112.821,620.354z M1104.349,620.594c0,4.057,1.248,6.36,3.168,6.36
		c2.16,0,3.192-2.521,3.192-6.505c0-3.84-0.984-6.36-3.168-6.36C1105.692,614.089,1104.349,616.346,1104.349,620.594z"/>
</g>
<g>
	<path d="M1006.64,440.689h-0.048l-2.712,1.464l-0.408-1.608l3.408-1.824h1.801v15.602h-2.041V440.689z"/>
	<path d="M1015.591,452.834c0.456,0.048,0.984,0,1.705-0.072c1.224-0.168,2.376-0.672,3.264-1.512
		c1.032-0.937,1.776-2.305,2.064-4.152h-0.072c-0.864,1.056-2.112,1.68-3.672,1.68c-2.809,0-4.608-2.111-4.608-4.776
		c0-2.952,2.136-5.544,5.328-5.544s5.16,2.592,5.16,6.576c0,3.433-1.151,5.833-2.688,7.321c-1.2,1.176-2.856,1.896-4.537,2.088
		c-0.768,0.12-1.439,0.144-1.944,0.12V452.834z M1016.359,443.857c0,1.944,1.176,3.313,3,3.313c1.416,0,2.521-0.696,3.072-1.633
		c0.12-0.191,0.192-0.432,0.192-0.768c0-2.664-0.984-4.704-3.192-4.704C1017.632,440.065,1016.359,441.649,1016.359,443.857z"/>
	<path d="M1026.679,454.322v-1.296l1.656-1.608c3.984-3.792,5.784-5.809,5.809-8.161c0-1.584-0.769-3.048-3.097-3.048
		c-1.416,0-2.592,0.72-3.313,1.32l-0.672-1.488c1.08-0.912,2.616-1.584,4.417-1.584c3.36,0,4.776,2.304,4.776,4.536
		c0,2.88-2.089,5.209-5.377,8.377l-1.248,1.152v0.048h7.009v1.752H1026.679z"/>
	<path d="M1039.158,453.074c0-0.888,0.601-1.512,1.44-1.512s1.416,0.624,1.416,1.512c0,0.864-0.552,1.512-1.44,1.512
		C1039.734,454.586,1039.158,453.938,1039.158,453.074z"/>
	<path d="M1048.542,440.689h-0.048l-2.712,1.464l-0.408-1.608l3.408-1.824h1.801v15.602h-2.041V440.689z"/>
	<path d="M1065.175,440.209c-0.433-0.024-0.984,0-1.585,0.096c-3.312,0.553-5.064,2.977-5.424,5.545h0.071
		c0.744-0.984,2.041-1.8,3.769-1.8c2.761,0,4.704,1.992,4.704,5.04c0,2.856-1.943,5.496-5.184,5.496
		c-3.337,0-5.521-2.592-5.521-6.648c0-3.072,1.104-5.496,2.64-7.032c1.296-1.272,3.024-2.064,4.992-2.305
		c0.625-0.096,1.152-0.12,1.537-0.12V440.209z M1064.574,449.21c0-2.232-1.272-3.576-3.216-3.576c-1.272,0-2.448,0.792-3.024,1.92
		c-0.145,0.24-0.24,0.552-0.24,0.937c0.048,2.567,1.224,4.464,3.433,4.464C1063.351,452.954,1064.574,451.442,1064.574,449.21z"/>
	<path d="M1068.389,450.362c0-1.969,1.177-3.36,3.097-4.177l-0.024-0.072c-1.728-0.815-2.472-2.16-2.472-3.504
		c0-2.473,2.088-4.152,4.824-4.152c3.024,0,4.536,1.896,4.536,3.84c0,1.32-0.647,2.736-2.568,3.648v0.072
		c1.944,0.768,3.145,2.136,3.145,4.032c0,2.712-2.328,4.536-5.305,4.536C1070.357,454.586,1068.389,452.643,1068.389,450.362z
		 M1076.79,450.266c0-1.896-1.32-2.808-3.433-3.408c-1.824,0.528-2.809,1.729-2.809,3.217c-0.071,1.584,1.129,2.976,3.121,2.976
		C1075.565,453.05,1076.79,451.874,1076.79,450.266z M1070.981,442.465c0,1.561,1.176,2.4,2.977,2.881
		c1.344-0.456,2.376-1.416,2.376-2.832c0-1.248-0.744-2.545-2.641-2.545C1071.941,439.969,1070.981,441.121,1070.981,442.465z"/>
	<path d="M1081.062,453.074c0-0.888,0.601-1.512,1.44-1.512s1.416,0.624,1.416,1.512c0,0.864-0.552,1.512-1.44,1.512
		C1081.638,454.586,1081.062,453.938,1081.062,453.074z"/>
	<path d="M1096.229,446.354c0,5.305-1.969,8.232-5.425,8.232c-3.048,0-5.112-2.855-5.16-8.017c0-5.232,2.256-8.112,5.424-8.112
		C1094.357,438.457,1096.229,441.385,1096.229,446.354z M1087.757,446.594c0,4.057,1.248,6.36,3.168,6.36
		c2.16,0,3.192-2.521,3.192-6.505c0-3.84-0.984-6.36-3.168-6.36C1089.101,440.089,1087.757,442.346,1087.757,446.594z"/>
	<path d="M1098.341,453.074c0-0.888,0.601-1.512,1.44-1.512s1.416,0.624,1.416,1.512c0,0.864-0.552,1.512-1.44,1.512
		C1098.917,454.586,1098.341,453.938,1098.341,453.074z"/>
	<path d="M1107.724,440.689h-0.048l-2.712,1.464l-0.408-1.608l3.408-1.824h1.801v15.602h-2.041V440.689z"/>
	<path d="M1120.036,440.689h-0.048l-2.712,1.464l-0.408-1.608l3.408-1.824h1.801v15.602h-2.041V440.689z"/>
</g>
<g>
	<path d="M851.64,204.801h-0.048l-2.712,1.464l-0.408-1.608l3.408-1.824h1.801v15.602h-2.041V204.801z"/>
	<path d="M860.591,216.945c0.456,0.048,0.984,0,1.705-0.072c1.224-0.168,2.376-0.672,3.264-1.512
		c1.032-0.937,1.776-2.305,2.064-4.152h-0.072c-0.864,1.056-2.112,1.68-3.672,1.68c-2.809,0-4.608-2.111-4.608-4.776
		c0-2.952,2.136-5.544,5.328-5.544s5.16,2.592,5.16,6.576c0,3.433-1.151,5.833-2.688,7.321c-1.2,1.176-2.856,1.896-4.537,2.088
		c-0.768,0.12-1.439,0.144-1.944,0.12V216.945z M861.359,207.969c0,1.944,1.176,3.313,3,3.313c1.416,0,2.521-0.696,3.072-1.633
		c0.12-0.191,0.192-0.432,0.192-0.768c0-2.664-0.984-4.704-3.192-4.704C862.632,204.177,861.359,205.761,861.359,207.969z"/>
	<path d="M871.679,218.434v-1.296l1.656-1.608c3.984-3.792,5.784-5.809,5.809-8.161c0-1.584-0.769-3.048-3.097-3.048
		c-1.416,0-2.592,0.72-3.313,1.32l-0.672-1.488c1.08-0.912,2.616-1.584,4.417-1.584c3.36,0,4.776,2.304,4.776,4.536
		c0,2.88-2.089,5.209-5.377,8.377l-1.248,1.152v0.048h7.009v1.752H871.679z"/>
	<path d="M884.158,217.186c0-0.888,0.601-1.512,1.44-1.512s1.416,0.624,1.416,1.512c0,0.864-0.552,1.512-1.44,1.512
		C884.734,218.697,884.158,218.05,884.158,217.186z"/>
	<path d="M893.542,204.801h-0.048l-2.712,1.464l-0.408-1.608l3.408-1.824h1.801v15.602h-2.041V204.801z"/>
	<path d="M910.175,204.32c-0.433-0.024-0.984,0-1.585,0.096c-3.312,0.553-5.064,2.977-5.424,5.545h0.071
		c0.744-0.984,2.041-1.8,3.769-1.8c2.761,0,4.704,1.992,4.704,5.04c0,2.856-1.943,5.496-5.184,5.496
		c-3.337,0-5.521-2.592-5.521-6.648c0-3.072,1.104-5.496,2.64-7.032c1.296-1.272,3.024-2.064,4.992-2.305
		c0.625-0.096,1.152-0.12,1.537-0.12V204.32z M909.574,213.321c0-2.232-1.272-3.576-3.216-3.576c-1.272,0-2.448,0.792-3.024,1.92
		c-0.145,0.24-0.24,0.552-0.24,0.937c0.048,2.567,1.224,4.464,3.433,4.464C908.351,217.065,909.574,215.554,909.574,213.321z"/>
	<path d="M913.389,214.474c0-1.969,1.177-3.36,3.097-4.177l-0.024-0.072c-1.728-0.815-2.472-2.16-2.472-3.504
		c0-2.473,2.088-4.152,4.824-4.152c3.024,0,4.536,1.896,4.536,3.84c0,1.32-0.647,2.736-2.568,3.648v0.072
		c1.944,0.768,3.145,2.136,3.145,4.032c0,2.712-2.328,4.536-5.305,4.536C915.357,218.697,913.389,216.754,913.389,214.474z
		 M921.79,214.377c0-1.896-1.32-2.808-3.433-3.408c-1.824,0.528-2.809,1.729-2.809,3.217c-0.071,1.584,1.129,2.976,3.121,2.976
		C920.565,217.161,921.79,215.985,921.79,214.377z M915.981,206.576c0,1.561,1.176,2.4,2.977,2.881
		c1.344-0.456,2.376-1.416,2.376-2.832c0-1.248-0.744-2.545-2.641-2.545C916.941,204.08,915.981,205.232,915.981,206.576z"/>
	<path d="M926.062,217.186c0-0.888,0.601-1.512,1.44-1.512s1.416,0.624,1.416,1.512c0,0.864-0.552,1.512-1.44,1.512
		C926.638,218.697,926.062,218.05,926.062,217.186z"/>
	<path d="M941.229,210.465c0,5.305-1.969,8.232-5.425,8.232c-3.048,0-5.112-2.855-5.16-8.017c0-5.232,2.256-8.112,5.424-8.112
		C939.357,202.568,941.229,205.496,941.229,210.465z M932.757,210.705c0,4.057,1.248,6.36,3.168,6.36
		c2.16,0,3.192-2.521,3.192-6.505c0-3.84-0.984-6.36-3.168-6.36C934.101,204.2,932.757,206.457,932.757,210.705z"/>
	<path d="M943.341,217.186c0-0.888,0.601-1.512,1.44-1.512s1.416,0.624,1.416,1.512c0,0.864-0.552,1.512-1.44,1.512
		C943.917,218.697,943.341,218.05,943.341,217.186z"/>
	<path d="M952.724,204.801h-0.048l-2.712,1.464l-0.408-1.608l3.408-1.824h1.801v15.602h-2.041V204.801z"/>
	<path d="M970.821,210.465c0,5.305-1.969,8.232-5.425,8.232c-3.048,0-5.112-2.855-5.16-8.017c0-5.232,2.256-8.112,5.424-8.112
		C968.949,202.568,970.821,205.496,970.821,210.465z M962.349,210.705c0,4.057,1.248,6.36,3.168,6.36
		c2.16,0,3.192-2.521,3.192-6.505c0-3.84-0.984-6.36-3.168-6.36C963.692,204.2,962.349,206.457,962.349,210.705z"/>
	<path d="M979.292,218.434v-4.248h-7.248v-1.393l6.96-9.961h2.28v9.697h2.185v1.656h-2.185v4.248H979.292z M979.292,212.529v-5.209
		c0-0.815,0.024-1.632,0.072-2.448h-0.072c-0.479,0.912-0.864,1.585-1.296,2.305l-3.816,5.305v0.048H979.292z"/>
</g>
<g>
	<path d="M557.64,139.689h-0.048l-2.712,1.464l-0.408-1.608l3.408-1.824h1.801v15.602h-2.041V139.689z"/>
	<path d="M566.591,151.834c0.456,0.048,0.984,0,1.705-0.072c1.224-0.168,2.376-0.672,3.264-1.512
		c1.032-0.937,1.776-2.305,2.064-4.152h-0.072c-0.864,1.056-2.112,1.68-3.672,1.68c-2.809,0-4.608-2.111-4.608-4.776
		c0-2.952,2.136-5.544,5.328-5.544s5.16,2.592,5.16,6.576c0,3.433-1.151,5.833-2.688,7.321c-1.2,1.176-2.856,1.896-4.537,2.088
		c-0.768,0.12-1.439,0.144-1.944,0.12V151.834z M567.359,142.857c0,1.944,1.176,3.313,3,3.313c1.416,0,2.521-0.696,3.072-1.633
		c0.12-0.191,0.192-0.432,0.192-0.768c0-2.664-0.984-4.704-3.192-4.704C568.632,139.065,567.359,140.649,567.359,142.857z"/>
	<path d="M577.679,153.322v-1.296l1.656-1.608c3.984-3.792,5.784-5.809,5.809-8.161c0-1.584-0.769-3.048-3.097-3.048
		c-1.416,0-2.592,0.72-3.313,1.32l-0.672-1.488c1.08-0.912,2.616-1.584,4.417-1.584c3.36,0,4.776,2.304,4.776,4.536
		c0,2.88-2.089,5.209-5.377,8.377l-1.248,1.152v0.048h7.009v1.752H577.679z"/>
	<path d="M590.158,152.074c0-0.888,0.601-1.512,1.44-1.512s1.416,0.624,1.416,1.512c0,0.864-0.552,1.512-1.44,1.512
		C590.734,153.586,590.158,152.938,590.158,152.074z"/>
	<path d="M599.542,139.689h-0.048l-2.712,1.464l-0.408-1.608l3.408-1.824h1.801v15.602h-2.041V139.689z"/>
	<path d="M616.175,139.209c-0.433-0.024-0.984,0-1.585,0.096c-3.312,0.553-5.064,2.977-5.424,5.545h0.071
		c0.744-0.984,2.041-1.8,3.769-1.8c2.761,0,4.704,1.992,4.704,5.04c0,2.856-1.943,5.496-5.184,5.496
		c-3.337,0-5.521-2.592-5.521-6.648c0-3.072,1.104-5.496,2.64-7.032c1.296-1.272,3.024-2.064,4.992-2.305
		c0.625-0.096,1.152-0.12,1.537-0.12V139.209z M615.574,148.21c0-2.232-1.272-3.576-3.216-3.576c-1.272,0-2.448,0.792-3.024,1.92
		c-0.145,0.24-0.24,0.552-0.24,0.937c0.048,2.567,1.224,4.464,3.433,4.464C614.351,151.954,615.574,150.442,615.574,148.21z"/>
	<path d="M619.389,149.362c0-1.969,1.177-3.36,3.097-4.177l-0.024-0.072c-1.728-0.815-2.472-2.16-2.472-3.504
		c0-2.473,2.088-4.152,4.824-4.152c3.024,0,4.536,1.896,4.536,3.84c0,1.32-0.647,2.736-2.568,3.648v0.072
		c1.944,0.768,3.145,2.136,3.145,4.032c0,2.712-2.328,4.536-5.305,4.536C621.357,153.586,619.389,151.643,619.389,149.362z
		 M627.79,149.266c0-1.896-1.32-2.808-3.433-3.408c-1.824,0.528-2.809,1.729-2.809,3.217c-0.071,1.584,1.129,2.976,3.121,2.976
		C626.565,152.05,627.79,150.874,627.79,149.266z M621.981,141.465c0,1.561,1.176,2.4,2.977,2.881
		c1.344-0.456,2.376-1.416,2.376-2.832c0-1.248-0.744-2.545-2.641-2.545C622.941,138.969,621.981,140.121,621.981,141.465z"/>
	<path d="M632.062,152.074c0-0.888,0.601-1.512,1.44-1.512s1.416,0.624,1.416,1.512c0,0.864-0.552,1.512-1.44,1.512
		C632.638,153.586,632.062,152.938,632.062,152.074z"/>
	<path d="M647.229,145.354c0,5.305-1.969,8.232-5.425,8.232c-3.048,0-5.112-2.855-5.16-8.017c0-5.232,2.256-8.112,5.424-8.112
		C645.357,137.457,647.229,140.385,647.229,145.354z M638.757,145.594c0,4.057,1.248,6.36,3.168,6.36
		c2.16,0,3.192-2.521,3.192-6.505c0-3.84-0.984-6.36-3.168-6.36C640.101,139.089,638.757,141.346,638.757,145.594z"/>
	<path d="M649.341,152.074c0-0.888,0.601-1.512,1.44-1.512s1.416,0.624,1.416,1.512c0,0.864-0.552,1.512-1.44,1.512
		C649.917,153.586,649.341,152.938,649.341,152.074z"/>
	<path d="M658.724,139.689h-0.048l-2.712,1.464l-0.408-1.608l3.408-1.824h1.801v15.602h-2.041V139.689z"/>
	<path d="M676.821,145.354c0,5.305-1.969,8.232-5.425,8.232c-3.048,0-5.112-2.855-5.16-8.017c0-5.232,2.256-8.112,5.424-8.112
		C674.949,137.457,676.821,140.385,676.821,145.354z M668.349,145.594c0,4.057,1.248,6.36,3.168,6.36
		c2.16,0,3.192-2.521,3.192-6.505c0-3.84-0.984-6.36-3.168-6.36C669.692,139.089,668.349,141.346,668.349,145.594z"/>
	<path d="M683.348,139.689H683.3l-2.712,1.464l-0.408-1.608l3.408-1.824h1.801v15.602h-2.041V139.689z"/>
</g>
<g>
	<g>
		<line fill="none" stroke="#000000" stroke-width="2" stroke-miterlimit="10" x1="404.896" y1="317" x2="426.665" y2="354.697"/>
		<g>
			<path d="M432.701,365.149c-4.665-3.865-11.303-8.169-16.786-10.047l9.958-1.777l6.515-7.735
				C431.273,351.277,431.685,359.178,432.701,365.149z"/>
		</g>
	</g>
</g>
<g>
	<g>
		
			<line fill="none" stroke="#000000" stroke-width="2" stroke-miterlimit="10" x1="610.798" y1="442.272" x2="610.14" y2="411.356"/>
		<g>
			<path d="M609.883,399.289c2.228,5.634,5.973,12.603,9.873,16.889l-9.582-3.237l-9.435,3.642
				C604.454,412.134,607.898,405.012,609.883,399.289z"/>
		</g>
	</g>
</g>
<g>
	<g>
		<path fill="#666666" d="M1200.396,583.5c0-0.333,0-0.667,0-1c0-1.935-3-1.935-3,0c0,0.333,0,0.667,0,1
			C1197.396,585.435,1200.396,585.435,1200.396,583.5L1200.396,583.5z"/>
	</g>
</g>
<g>
</g>
<g>
</g>
<g>
</g>
<g>
</g>
<g>
</g>
<g>
</g>
<g>
</g>
<g>
</g>
<g>
</g>
<g>
</g>
<g>
</g>
<g>
</g>
<g>
</g>
<g>
</g>
<g>
</g>
<g>
</g>
</svg>
